<?xml version="1.0" encoding="UTF-8" standalone="no"?>
<!DOCTYPE svg PUBLIC "-//W3C//DTD SVG 1.1//EN"
 "http://www.w3.org/Graphics/SVG/1.1/DTD/svg11.dtd">
<!-- Generated by graphviz version 2.40.1 (20161225.0304)
 -->
<!-- Title: %3 Pages: 1 -->
<svg width="226pt" height="191pt"
 viewBox="0.00 0.00 225.75 191.34" xmlns="http://www.w3.org/2000/svg" xmlns:xlink="http://www.w3.org/1999/xlink">
<g id="graph0" class="graph" transform="scale(1 1) rotate(0) translate(4 187.3381)">
<title>%3</title>
<polygon fill="#ffffff" stroke="transparent" points="-4,4 -4,-187.3381 221.7487,-187.3381 221.7487,4 -4,4"/>
<!-- ray_&#45;90 -->
<g id="node1" class="node">
<title>ray_&#45;90</title>
<polygon fill="#d3d3d3" stroke="#000000" points="46.7487,-183.3381 2.7487,-183.3381 2.7487,-165.3381 46.7487,-165.3381 46.7487,-183.3381"/>
<text text-anchor="middle" x="24.7487" y="-172.1381" font-family="Times,serif" font-size="9.00" fill="#000000">ray_&#45;90</text>
</g>
<!-- drive -->
<g id="node5" class="node">
<title>drive</title>
<ellipse fill="#add8e6" stroke="#000000" cx="24.7487" cy="-104.5894" rx="25" ry="25"/>
<text text-anchor="middle" x="24.7487" y="-102.3894" font-family="Times,serif" font-size="9.00" fill="#000000">drive</text>
</g>
<!-- ray_&#45;90&#45;&gt;drive -->
<g id="edge5" class="edge">
<title>ray_&#45;90&#45;&gt;drive</title>
<path fill="none" stroke="#00ff00" stroke-width=".3019" d="M24.7487,-165.2197C24.7487,-158.6029 24.7487,-149.1914 24.7487,-139.7518"/>
<polygon fill="#00ff00" stroke="#00ff00" stroke-width=".3019" points="28.2488,-139.6286 24.7487,-129.6286 21.2488,-139.6287 28.2488,-139.6286"/>
</g>
<!-- ray&#45;45 -->
<g id="node2" class="node">
<title>ray&#45;45</title>
<polygon fill="#d3d3d3" stroke="#000000" points="106.7487,-183.3381 66.7487,-183.3381 66.7487,-165.3381 106.7487,-165.3381 106.7487,-183.3381"/>
<text text-anchor="middle" x="86.7487" y="-172.1381" font-family="Times,serif" font-size="9.00" fill="#000000">ray&#45;45</text>
</g>
<!-- turn -->
<g id="node6" class="node">
<title>turn</title>
<ellipse fill="#add8e6" stroke="#000000" cx="113.7487" cy="-21.9203" rx="21.8409" ry="21.8409"/>
<text text-anchor="middle" x="113.7487" y="-19.7203" font-family="Times,serif" font-size="9.00" fill="#000000">turn</text>
</g>
<!-- ray&#45;45&#45;&gt;turn -->
<g id="edge1" class="edge">
<title>ray&#45;45&#45;&gt;turn</title>
<path fill="none" stroke="#ff0000" stroke-width=".2604" d="M84.9439,-165.2601C85.2257,-143.4449 94.4773,-87.2789 102.8994,-52.0803"/>
<polygon fill="#ff0000" stroke="#ff0000" stroke-width=".2604" points="106.3085,-52.8751 105.3598,-42.3228 99.5209,-51.1635 106.3085,-52.8751"/>
</g>
<!-- ray&#45;45&#45;&gt;turn -->
<g id="edge2" class="edge">
<title>ray&#45;45&#45;&gt;turn</title>
<path fill="none" stroke="#00ff00" stroke-width=".261" d="M91.7698,-165.2601C99.066,-143.887 109.4341,-89.5413 113.6585,-54.2457"/>
<polygon fill="#00ff00" stroke="#00ff00" stroke-width=".261" points="117.1751,-54.2774 114.7621,-43.961 110.2151,-53.5305 117.1751,-54.2774"/>
</g>
<!-- 19 -->
<g id="node7" class="node">
<title>19</title>
<ellipse fill="#ffffff" stroke="#000000" cx="141.7487" cy="-104.5894" rx="18.2703" ry="18.2703"/>
<text text-anchor="middle" x="141.7487" y="-102.3894" font-family="Times,serif" font-size="9.00" fill="#000000">19</text>
</g>
<!-- ray&#45;45&#45;&gt;19 -->
<g id="edge6" class="edge">
<title>ray&#45;45&#45;&gt;19</title>
<path fill="none" stroke="#00ff00" stroke-width=".1808" d="M93.939,-165.2197C101.5347,-155.5871 113.801,-140.0315 124.007,-127.0887"/>
<polygon fill="#00ff00" stroke="#00ff00" stroke-width=".1808" points="126.9028,-129.0689 130.3464,-119.0493 121.4061,-124.7345 126.9028,-129.0689"/>
</g>
<!-- ray&#45;0 -->
<g id="node3" class="node">
<title>ray&#45;0</title>
<polygon fill="#d3d3d3" stroke="#000000" points="160.2487,-183.3381 125.2487,-183.3381 125.2487,-165.3381 160.2487,-165.3381 160.2487,-183.3381"/>
<text text-anchor="middle" x="142.7487" y="-172.1381" font-family="Times,serif" font-size="9.00" fill="#000000">ray&#45;0</text>
</g>
<!-- ray&#45;90 -->
<g id="node4" class="node">
<title>ray&#45;90</title>
<polygon fill="#d3d3d3" stroke="#000000" points="217.7487,-113.5894 177.7487,-113.5894 177.7487,-95.5894 217.7487,-95.5894 217.7487,-113.5894"/>
<text text-anchor="middle" x="197.7487" y="-102.3894" font-family="Times,serif" font-size="9.00" fill="#000000">ray&#45;90</text>
</g>
<!-- ray&#45;90&#45;&gt;turn -->
<g id="edge3" class="edge">
<title>ray&#45;90&#45;&gt;turn</title>
<path fill="none" stroke="#00ff00" stroke-width=".1532" d="M188.4383,-95.4265C176.0661,-83.2503 153.7897,-61.3268 136.7741,-44.5808"/>
<polygon fill="#00ff00" stroke="#00ff00" stroke-width=".1532" points="138.9632,-41.8245 129.3808,-37.3047 134.0531,-46.8137 138.9632,-41.8245"/>
</g>
<!-- turn&#45;&gt;turn -->
<g id="edge4" class="edge">
<title>turn&#45;&gt;turn</title>
<path fill="none" stroke="#ff0000" stroke-width=".1291" d="M130.9826,-35.9402C142.4788,-39.8866 153.669,-35.2133 153.669,-21.9203 153.669,-12.7814 148.3799,-7.7166 141.3385,-6.726"/>
<polygon fill="#ff0000" stroke="#ff0000" stroke-width=".1291" points="140.5245,-3.2958 130.9826,-7.9004 141.3133,-10.2512 140.5245,-3.2958"/>
</g>
<!-- 19&#45;&gt;turn -->
<g id="edge7" class="edge">
<title>19&#45;&gt;turn</title>
<path fill="none" stroke="#00ff00" stroke-width=".3148" d="M135.8107,-87.0574C132.4335,-77.0864 128.1069,-64.3123 124.1813,-52.722"/>
<polygon fill="#00ff00" stroke="#00ff00" stroke-width=".3148" points="127.3917,-51.2902 120.8686,-42.9416 120.7617,-53.5359 127.3917,-51.2902"/>
</g>
</g>
</svg>
