<?xml version="1.0" encoding="UTF-8" standalone="no"?>
<!DOCTYPE svg PUBLIC "-//W3C//DTD SVG 1.1//EN"
 "http://www.w3.org/Graphics/SVG/1.1/DTD/svg11.dtd">
<!-- Generated by graphviz version 2.43.0 (0)
 -->
<!-- Title: %3 Pages: 1 -->
<svg width="321pt" height="120pt"
 viewBox="0.00 0.00 321.00 119.98" xmlns="http://www.w3.org/2000/svg" xmlns:xlink="http://www.w3.org/1999/xlink">
<g id="graph0" class="graph" transform="scale(1 1) rotate(0) translate(4 115.98)">
<title>%3</title>
<polygon fill="white" stroke="transparent" points="-4,4 -4,-115.98 317,-115.98 317,4 -4,4"/>
<!-- ray_&#45;90 -->
<g id="node1" class="node">
<title>ray_&#45;90</title>
<polygon fill="lightgray" stroke="black" points="51,-111.98 0,-111.98 0,-93.98 51,-93.98 51,-111.98"/>
<text text-anchor="middle" x="25.5" y="-100.78" font-family="Times,serif" font-size="9.00">ray_&#45;90</text>
</g>
<!-- ray&#45;45 -->
<g id="node2" class="node">
<title>ray&#45;45</title>
<polygon fill="lightgray" stroke="black" points="116,-111.98 69,-111.98 69,-93.98 116,-93.98 116,-111.98"/>
<text text-anchor="middle" x="92.5" y="-100.78" font-family="Times,serif" font-size="9.00">ray&#45;45</text>
</g>
<!-- turn -->
<g id="node7" class="node">
<title>turn</title>
<ellipse fill="lightblue" stroke="black" cx="159.5" cy="-28.99" rx="26.33" ry="26.33"/>
<text text-anchor="middle" x="159.5" y="-26.79" font-family="Times,serif" font-size="9.00">turn</text>
</g>
<!-- ray&#45;45&#45;&gt;turn -->
<g id="edge3" class="edge">
<title>ray&#45;45&#45;&gt;turn</title>
<path fill="none" stroke="red" stroke-width="0.15" d="M100.19,-93.72C108.69,-84.59 122.83,-69.39 135.17,-56.14"/>
<polygon fill="red" stroke="red" stroke-width="0.15" points="137.92,-58.32 142.17,-48.61 132.79,-53.55 137.92,-58.32"/>
</g>
<!-- ray&#45;0 -->
<g id="node3" class="node">
<title>ray&#45;0</title>
<polygon fill="lightgray" stroke="black" points="313,-111.98 272,-111.98 272,-93.98 313,-93.98 313,-111.98"/>
<text text-anchor="middle" x="292.5" y="-100.78" font-family="Times,serif" font-size="9.00">ray&#45;0</text>
</g>
<!-- drive -->
<g id="node6" class="node">
<title>drive</title>
<ellipse fill="lightblue" stroke="black" cx="262.5" cy="-28.99" rx="28.98" ry="28.98"/>
<text text-anchor="middle" x="262.5" y="-26.79" font-family="Times,serif" font-size="9.00">drive</text>
</g>
<!-- ray&#45;0&#45;&gt;drive -->
<g id="edge2" class="edge">
<title>ray&#45;0&#45;&gt;drive</title>
<path fill="none" stroke="green" stroke-width="0.32" d="M289.06,-93.72C286.11,-86.64 281.64,-75.92 277.21,-65.28"/>
<polygon fill="green" stroke="green" stroke-width="0.32" points="280.43,-63.93 273.36,-56.05 273.97,-66.62 280.43,-63.93"/>
</g>
<!-- ray+45 -->
<g id="node4" class="node">
<title>ray+45</title>
<polygon fill="lightgray" stroke="black" points="185,-111.98 134,-111.98 134,-93.98 185,-93.98 185,-111.98"/>
<text text-anchor="middle" x="159.5" y="-100.78" font-family="Times,serif" font-size="9.00">ray+45</text>
</g>
<!-- ray+45&#45;&gt;turn -->
<g id="edge1" class="edge">
<title>ray+45&#45;&gt;turn</title>
<path fill="none" stroke="green" stroke-width="0.35" d="M159.5,-93.72C159.5,-86.67 159.5,-76.01 159.5,-65.42"/>
<polygon fill="green" stroke="green" stroke-width="0.35" points="163,-65.4 159.5,-55.4 156,-65.4 163,-65.4"/>
</g>
<!-- ray+90 -->
<g id="node5" class="node">
<title>ray+90</title>
<polygon fill="lightgray" stroke="black" points="254,-111.98 203,-111.98 203,-93.98 254,-93.98 254,-111.98"/>
<text text-anchor="middle" x="228.5" y="-100.78" font-family="Times,serif" font-size="9.00">ray+90</text>
</g>
<!-- ray+90&#45;&gt;drive -->
<g id="edge5" class="edge">
<title>ray+90&#45;&gt;drive</title>
<path fill="none" stroke="green" stroke-width="0.42" d="M232.4,-93.72C235.8,-86.53 240.97,-75.57 246.08,-64.77"/>
<polygon fill="green" stroke="green" stroke-width="0.42" points="249.39,-65.94 250.5,-55.4 243.06,-62.95 249.39,-65.94"/>
</g>
<!-- ray+90&#45;&gt;turn -->
<g id="edge4" class="edge">
<title>ray+90&#45;&gt;turn</title>
<path fill="none" stroke="red" stroke-width="0.12" d="M220.58,-93.72C211.83,-84.59 197.27,-69.39 184.56,-56.14"/>
<polygon fill="red" stroke="red" stroke-width="0.12" points="186.79,-53.41 177.35,-48.61 181.74,-58.25 186.79,-53.41"/>
</g>
<!-- drive&#45;&gt;drive -->
<g id="edge6" class="edge">
<title>drive&#45;&gt;drive</title>
<path fill="none" stroke="green" stroke-width="0.52" d="M288.59,-42.33C299.85,-43.42 309.49,-38.98 309.49,-28.99 309.49,-22.28 305.14,-18.07 298.87,-16.37"/>
<polygon fill="green" stroke="green" stroke-width="0.52" points="298.81,-12.85 288.59,-15.65 298.33,-19.84 298.81,-12.85"/>
</g>
</g>
</svg>
