<?xml version="1.0" encoding="UTF-8" standalone="no"?>
<!DOCTYPE svg PUBLIC "-//W3C//DTD SVG 1.1//EN"
 "http://www.w3.org/Graphics/SVG/1.1/DTD/svg11.dtd">
<!-- Generated by graphviz version 2.40.1 (20161225.0304)
 -->
<!-- Title: %3 Pages: 1 -->
<svg width="284pt" height="111pt"
 viewBox="0.00 0.00 284.00 111.50" xmlns="http://www.w3.org/2000/svg" xmlns:xlink="http://www.w3.org/1999/xlink">
<g id="graph0" class="graph" transform="scale(1 1) rotate(0) translate(4 107.4975)">
<title>%3</title>
<polygon fill="#ffffff" stroke="transparent" points="-4,4 -4,-107.4975 280,-107.4975 280,4 -4,4"/>
<!-- ray_&#45;90 -->
<g id="node1" class="node">
<title>ray_&#45;90</title>
<polygon fill="#d3d3d3" stroke="#000000" points="44,-103.4975 0,-103.4975 0,-85.4975 44,-85.4975 44,-103.4975"/>
<text text-anchor="middle" x="22" y="-92.2975" font-family="Times,serif" font-size="9.00" fill="#000000">ray_&#45;90</text>
</g>
<!-- ray&#45;45 -->
<g id="node2" class="node">
<title>ray&#45;45</title>
<polygon fill="#d3d3d3" stroke="#000000" points="102,-103.4975 62,-103.4975 62,-85.4975 102,-85.4975 102,-103.4975"/>
<text text-anchor="middle" x="82" y="-92.2975" font-family="Times,serif" font-size="9.00" fill="#000000">ray&#45;45</text>
</g>
<!-- turn -->
<g id="node7" class="node">
<title>turn</title>
<ellipse fill="#add8e6" stroke="#000000" cx="99" cy="-24.7487" rx="21.8409" ry="21.8409"/>
<text text-anchor="middle" x="99" y="-22.5487" font-family="Times,serif" font-size="9.00" fill="#000000">turn</text>
</g>
<!-- ray&#45;45&#45;&gt;turn -->
<g id="edge3" class="edge">
<title>ray&#45;45&#45;&gt;turn</title>
<path fill="none" stroke="#ff0000" stroke-width=".3536" d="M84.2225,-85.379C86.0503,-77.8796 88.7532,-66.7898 91.3494,-56.1381"/>
<polygon fill="#ff0000" stroke="#ff0000" stroke-width=".3536" points="94.8062,-56.7357 93.7738,-46.1913 88.0052,-55.078 94.8062,-56.7357"/>
</g>
<!-- ray&#45;0 -->
<g id="node3" class="node">
<title>ray&#45;0</title>
<polygon fill="#d3d3d3" stroke="#000000" points="215.5,-103.4975 180.5,-103.4975 180.5,-85.4975 215.5,-85.4975 215.5,-103.4975"/>
<text text-anchor="middle" x="198" y="-92.2975" font-family="Times,serif" font-size="9.00" fill="#000000">ray&#45;0</text>
</g>
<!-- drive -->
<g id="node6" class="node">
<title>drive</title>
<ellipse fill="#add8e6" stroke="#000000" cx="198" cy="-24.7487" rx="25" ry="25"/>
<text text-anchor="middle" x="198" y="-22.5487" font-family="Times,serif" font-size="9.00" fill="#000000">drive</text>
</g>
<!-- ray&#45;0&#45;&gt;drive -->
<g id="edge5" class="edge">
<title>ray&#45;0&#45;&gt;drive</title>
<path fill="none" stroke="#00ff00" stroke-width=".4418" d="M198,-85.379C198,-78.7623 198,-69.3508 198,-59.9112"/>
<polygon fill="#00ff00" stroke="#00ff00" stroke-width=".4418" points="201.5001,-59.788 198,-49.788 194.5001,-59.788 201.5001,-59.788"/>
</g>
<!-- ray+45 -->
<g id="node4" class="node">
<title>ray+45</title>
<polygon fill="#d3d3d3" stroke="#000000" points="162,-103.4975 120,-103.4975 120,-85.4975 162,-85.4975 162,-103.4975"/>
<text text-anchor="middle" x="141" y="-92.2975" font-family="Times,serif" font-size="9.00" fill="#000000">ray+45</text>
</g>
<!-- ray+45&#45;&gt;drive -->
<g id="edge1" class="edge">
<title>ray+45&#45;&gt;drive</title>
<path fill="none" stroke="#00ff00" stroke-width=".2607" d="M148.4518,-85.379C155.366,-76.9183 166.0147,-63.888 175.6707,-52.0723"/>
<polygon fill="#00ff00" stroke="#00ff00" stroke-width=".2607" points="178.5211,-54.1154 182.1389,-44.1574 173.1008,-49.6858 178.5211,-54.1154"/>
</g>
<!-- ray+45&#45;&gt;turn -->
<g id="edge4" class="edge">
<title>ray+45&#45;&gt;turn</title>
<path fill="none" stroke="#00ff00" stroke-width=".5036" d="M135.5092,-85.379C130.4416,-76.9633 122.6515,-64.0265 115.5668,-52.261"/>
<polygon fill="#00ff00" stroke="#00ff00" stroke-width=".5036" points="118.5003,-50.3477 110.3433,-43.5864 112.5036,-53.9587 118.5003,-50.3477"/>
</g>
<!-- ray+90 -->
<g id="node5" class="node">
<title>ray+90</title>
<polygon fill="#d3d3d3" stroke="#000000" points="276,-103.4975 234,-103.4975 234,-85.4975 276,-85.4975 276,-103.4975"/>
<text text-anchor="middle" x="255" y="-92.2975" font-family="Times,serif" font-size="9.00" fill="#000000">ray+90</text>
</g>
<!-- ray+90&#45;&gt;drive -->
<g id="edge6" class="edge">
<title>ray+90&#45;&gt;drive</title>
<path fill="none" stroke="#00ff00" stroke-width=".294" d="M247.5482,-85.379C240.634,-76.9183 229.9853,-63.888 220.3293,-52.0723"/>
<polygon fill="#00ff00" stroke="#00ff00" stroke-width=".294" points="222.8992,-49.6858 213.8611,-44.1574 217.4789,-54.1154 222.8992,-49.6858"/>
</g>
<!-- turn&#45;&gt;turn -->
<g id="edge2" class="edge">
<title>turn&#45;&gt;turn</title>
<path fill="none" stroke="#ff0000" stroke-width=".4537" d="M117.4787,-36.7019C128.5244,-39.3581 138.9203,-35.3737 138.9203,-24.7487 138.9203,-17.6101 134.2274,-13.4691 127.7976,-12.3258"/>
<polygon fill="#ff0000" stroke="#ff0000" stroke-width=".4537" points="127.3092,-8.8443 117.4787,-12.7956 127.6276,-15.8371 127.3092,-8.8443"/>
</g>
</g>
</svg>
